Coordinates
version=1
nRows=12
nColumns=34
inDegrees=yes

Units are S.I. units (second, meters, Newtons, ...)
If the header above contains a line with 'inDegrees', this indicates whether rotational values are in degrees (yes) or radians (no).

endheader
time	pelvis_tilt	pelvis_list	pelvis_rotation	pelvis_tx	pelvis_ty	pelvis_tz	hip_flexion_r	hip_adduction_r	hip_rotation_r	knee_angle_r	ankle_angle_r	subtalar_angle_r	mtp_angle_r	hip_flexion_l	hip_adduction_l	hip_rotation_l	knee_angle_l	ankle_angle_l	subtalar_angle_l	mtp_angle_l	lumbar_extension	lumbar_bending	lumbar_rotation	arm_flex_r	arm_add_r	arm_rot_r	elbow_flex_r	pro_sup_r	arm_flex_l	arm_add_l	arm_rot_l	elbow_flex_l	pro_sup_l
      6.31666670	    -18.41939713	      3.97325174	     -4.79743424	      0.21916926	      0.36864522	     -0.06841623	    119.99999986	    -11.40718410	     19.81539509	    138.02613771	     41.30004383	     -6.98060458	      0.00000000	    119.99999986	    -17.99916843	     23.09287698	    137.51147690	     38.22438568	      6.67909514	      0.00000000	    -42.77888700	     -5.30126728	      1.86243084	    126.97255256	      3.20357005	     70.29050334	    129.64769417	     72.23411327	    132.04994909	      3.56413804	     82.68139392	    116.49049954	     63.45479066
      6.33333330	    -18.98140840	      3.94150139	     -4.78997547	      0.21741406	      0.37244971	     -0.06759579	    119.99999986	    -11.42596356	     19.28202425	    137.34073722	     40.77355020	     -7.97010071	      0.00000000	    119.99999986	    -17.88365610	     22.64021751	    136.84309331	     37.97241957	      5.54581934	      0.00000000	    -42.56850203	     -5.21113107	      1.93407717	    127.13328975	      3.27499228	     70.51727381	    129.73916174	     72.24618978	    132.34462955	      3.45010099	     82.92131414	    116.68507422	     63.43222001
      6.35000000	    -19.31207399	      3.74959664	     -4.73148707	      0.21426541	      0.37318486	     -0.06821910	    119.99999986	    -11.60425591	     18.68253164	    136.81286626	     40.50438032	     -8.39961087	      0.00000000	    119.99999986	    -17.64706082	     22.46568869	    136.34176322	     38.04645607	      5.38416820	      0.00000000	    -42.45408404	     -4.95774594	      2.12183943	    127.19725533	      3.25191159	     70.49028628	    129.71483177	     72.23952033	    132.56137660	      3.36526278	     82.92926905	    116.68834496	     63.40923471
      6.36666670	    -19.73114061	      3.61679383	     -4.46134506	      0.22243362	      0.37681461	     -0.06926012	    119.99999986	    -11.98783548	     18.64531064	    136.57799455	     40.21129268	     -8.62920032	      0.00000000	    119.99999986	    -17.51944588	     22.26581451	    136.03192828	     37.94435968	      5.08105300	      0.00000000	    -41.90757962	     -4.66575863	      2.38464573	    126.57225526	      3.00615649	     70.90627344	    130.29517461	     72.28201062	    131.51200636	      3.76926944	     83.46246479	    117.55722789	     63.40871396
      6.38333330	    -20.07201279	      3.75221946	     -4.37667528	      0.21331912	      0.37811158	     -0.07155724	    119.99999986	    -12.13802780	     18.50751184	    135.91817738	     40.06096024	     -8.57002872	      0.00000000	    119.99999986	    -17.36862338	     21.39272781	    135.46655915	     38.21069067	      4.88592952	      0.00000000	    -41.75691528	     -4.61599783	      2.42662417	    126.65744853	      2.95865800	     70.91635283	    130.16527091	     72.27671600	    131.60103157	      4.18824565	     83.45280561	    117.47632806	     63.39113651
      6.40000000	    -19.95753475	      3.58732598	     -4.21058892	      0.20807801	      0.37529588	     -0.06663543	    119.99999986	    -12.37675783	     18.20923735	    135.80999426	     39.98886456	     -8.64565759	      0.00000000	    119.99999986	    -17.09335410	     21.57540941	    135.24631964	     37.57205626	      4.43422471	      0.00000000	    -42.14693829	     -4.46690855	      2.60715465	    127.44710543	      2.78386172	     70.26890876	    129.69138761	     72.20567467	    132.35800815	      4.20401864	     83.20546870	    116.54821903	     63.30415267
      6.41666670	    -19.82566854	      3.59049504	     -4.11508415	      0.20808019	      0.37663182	     -0.06841925	    119.99999986	    -12.43055678	     18.02110618	    135.67203118	     39.88699511	     -8.78862684	      0.00000000	    119.99999986	    -16.93487955	     21.47837941	    135.15569749	     37.03895151	      4.16401500	      0.00000000	    -42.62494220	     -4.44151809	      2.38528221	    128.22049992	      2.85833928	     69.98250428	    129.52199449	     72.13747218	    133.21787221	      4.22095254	     83.12935535	    115.99853673	     63.21982592
      6.43333330	    -19.46196873	      3.52217806	     -3.99376019	      0.20315945	      0.37395251	     -0.06985957	    119.99999986	    -12.52144931	     17.96307696	    135.67604018	     39.69893476	     -8.82484018	      0.00000000	    119.99999986	    -16.72442496	     21.44118048	    135.08534582	     36.58073831	      4.05550701	      0.00000000	    -43.32902655	     -4.23930531	      2.16514883	    129.28325578	      2.81424584	     69.24516365	    128.98864238	     72.04230241	    134.48788108	      3.99508137	     82.54711352	    115.23020205	     63.11177066
      6.45000000	    -19.11769256	      3.48380096	     -3.89880513	      0.21121060	      0.37200054	     -0.06751126	    119.99999986	    -12.57587492	     18.22460231	    136.14042704	     39.81430451	     -8.85820456	      0.00000000	    119.99999986	    -16.75045040	     21.89169858	    135.53194964	     36.44029491	      4.02427060	      0.00000000	    -43.48860508	     -4.20557045	      2.09813425	    129.33663549	      2.82694585	     69.20350593	    129.04526255	     72.03676177	    134.50330281	      3.99178186	     82.51091274	    115.27921660	     63.10132709
      6.46666670	    -19.03509986	      3.59804711	     -3.65456499	      0.21723471	      0.37274595	     -0.06624020	    119.99999986	    -12.71686460	     18.73268421	    136.65782648	     40.29887685	     -8.38389597	      0.00000000	    119.99999986	    -16.86325576	     22.00085200	    135.89804026	     36.03428764	      4.22433649	      0.00000000	    -43.44877819	     -4.24397627	      1.85575681	    129.11116252	      3.00101569	     69.20508115	    129.74113899	     72.03950864	    134.19427586	      4.09924849	     82.48610347	    116.40482284	     63.05260279
      6.48333330	    -18.98485138	      3.64544555	     -3.63230065	      0.21908557	      0.37101413	     -0.06708580	    119.99999986	    -12.68222906	     19.16120649	    137.10163350	     40.73622674	     -7.95320689	      0.00000000	    119.99999986	    -17.09944190	     22.11673572	    136.28387619	     36.32030574	      4.24112747	      0.00000000	    -43.18230116	     -4.27108466	      1.88723859	    128.42198277	      3.16565605	     69.45321085	    130.11453531	     72.06183456	    133.57018057	      4.22378739	     82.75883797	    117.04593294	     63.00429007
      6.50000000	    -18.72096497	      3.67281564	     -3.74961431	      0.21754324	      0.36552340	     -0.06886492	    119.99999986	    -12.60973758	     19.68470485	    137.57802614	     41.18807008	     -7.47478396	      0.00000000	    119.99999986	    -17.28999582	     22.35321390	    136.78419296	     37.07883876	      4.49754217	      0.00000000	    -43.06642423	     -4.31569161	      1.91821378	    127.98220897	      3.28732537	     69.50861857	    130.27348342	     72.07436674	    133.27427635	      4.15528814	     82.76573713	    117.29527538	     62.96060079
